<svg id="Campus_name" data-name="Campus name" xmlns="http://www.w3.org/2000/svg" viewBox="0 0 306.14 96.5"><polygon points="76 0 50.66 0 0 50.66 0 71.17 50.66 71.17 50.66 96.5 76 96.5 76 50.66 25.33 50.66 76 0"/><polygon points="86.85 25.33 112.19 0 86.85 0 86.85 25.33"/><polygon points="137.52 25.33 137.52 0 112.19 0 112.19 25.33 86.85 50.66 86.85 76 112.19 76 112.19 50.66 137.52 25.33"/><polygon points="137.52 50.66 112.19 76 137.52 76 137.52 50.66"/><rect x="161.99" y="50.74" width="2" height="25.19"/><path d="M178.63,56l-1.32,10.74h4.17l-.33,2.6h-7.24L175.55,56Z"/><path d="M187,56l-.88,7.28a6.35,6.35,0,0,0-.09,1.16,2.34,2.34,0,0,0,.58,1.72,2.45,2.45,0,0,0,1.75.6,2.72,2.72,0,0,0,2-.66,4.42,4.42,0,0,0,.9-2.54L192.1,56h3.08l-1,7.76c-.2,1.6-.38,3.22-1.58,4.44a5.91,5.91,0,0,1-4.39,1.44A5.74,5.74,0,0,1,184,68.27a4.05,4.05,0,0,1-1.18-3.08c0-.6.1-1.56.16-2.1l.86-7.08Z"/><path d="M201,62.27,197.59,56h3.62l1.75,3.8,2.66-3.8h3.78l-4.91,6.26,4,7.08H204.9l-2.39-4.62L199,69.35h-3.78Z"/><path d="M218.85,58.61h-4.36l-.32,2.58h4.21l-.32,2.6h-4.21l-.36,3h4.45l-.33,2.6h-7.44L211.81,56h7.37Z"/><path d="M219.65,69.35,223.45,56H226l2.28,8,4.33-8h2.62l.48,13.34h-3.08l-.08-8-4.27,8h-1.16l-2.34-8-2,8Z"/><path d="M239.57,56h4.26a4.09,4.09,0,0,1,2.94.92,3.12,3.12,0,0,1,.87,2.28,3.45,3.45,0,0,1-.62,2.08,2.74,2.74,0,0,1-1.41,1,3.29,3.29,0,0,1,1.53.8,2.75,2.75,0,0,1,.85,2.12,3.89,3.89,0,0,1-1.08,2.86,5.52,5.52,0,0,1-4,1.26h-5ZM241.31,67h1.12a3.22,3.22,0,0,0,2-.5,1.64,1.64,0,0,0,.48-1.28,1.41,1.41,0,0,0-.36-1,2.58,2.58,0,0,0-1.64-.46h-1.2Zm.68-5.52h.62a2.46,2.46,0,0,0,1.7-.5,1.69,1.69,0,0,0,.46-1.2,1.27,1.27,0,0,0-.42-1,2.19,2.19,0,0,0-1.36-.32h-.64Z"/><path d="M262.68,57.45a6.54,6.54,0,0,1,1.88,4.74,7.84,7.84,0,0,1-2.06,5.4A7.38,7.38,0,0,1,257,69.65a6.69,6.69,0,0,1-5.09-1.9A6.55,6.55,0,0,1,250,63.09a7.26,7.26,0,0,1,2.2-5.36,7.7,7.7,0,0,1,5.48-2A6.93,6.93,0,0,1,262.68,57.45Zm-8.29,2.38a4.49,4.49,0,0,0-1.22,3.06,4.13,4.13,0,0,0,7,2.78,4.66,4.66,0,0,0,1.25-3.28,3.74,3.74,0,0,0-1.07-2.8,3.79,3.79,0,0,0-2.76-1A4.2,4.2,0,0,0,254.39,59.83Z"/><path d="M270.71,56l-.88,7.28a6.26,6.26,0,0,0-.1,1.16,2.34,2.34,0,0,0,.58,1.72,2.5,2.5,0,0,0,1.76.6,2.69,2.69,0,0,0,2-.66,4.42,4.42,0,0,0,.9-2.54l.92-7.56h3.09l-1,7.76c-.21,1.6-.39,3.22-1.59,4.44A5.9,5.9,0,0,1,272,69.65a5.73,5.73,0,0,1-4.22-1.38,4.05,4.05,0,0,1-1.18-3.08c0-.6.1-1.56.16-2.1l.86-7.08Z"/><path d="M286,56a4.39,4.39,0,0,1,3.54,1.2,3.8,3.8,0,0,1,1,2.72,4,4,0,0,1-1.1,2.92,4.31,4.31,0,0,1-2.12,1.08l3.44,5.42h-3.6l-3.22-5.26-.64,5.26h-3.08L281.85,56Zm-1.86,6.06h.76a3,3,0,0,0,1.8-.48,1.85,1.85,0,0,0,.68-1.56,1.44,1.44,0,0,0-.64-1.3,3.15,3.15,0,0,0-1.68-.32h-.46Z"/><path d="M299.89,62.07h6.25a8.17,8.17,0,0,1-2.07,5.7,6.33,6.33,0,0,1-4.92,1.88,6.16,6.16,0,0,1-6.6-6.5,7.54,7.54,0,0,1,2-5.38A6.91,6.91,0,0,1,300,55.71a6.8,6.8,0,0,1,3.76,1,7.31,7.31,0,0,1,2.17,2.4l-2.85,1.5a3.74,3.74,0,0,0-1.24-1.52,3.52,3.52,0,0,0-2-.56,3.55,3.55,0,0,0-2.8,1.12,5,5,0,0,0-1.3,3.4,4.12,4.12,0,0,0,1.1,2.86,3.7,3.7,0,0,0,2.74,1,3.66,3.66,0,0,0,2.12-.6,3.12,3.12,0,0,0,1.14-1.72h-3.22Z"/></svg>